<?xml version="1.0" encoding="utf-8"?>
<!-- Generator: Adobe Illustrator 22.1.0, SVG Export Plug-In . SVG Version: 6.00 Build 0)  -->
<svg version="1.1" id="Capa_1" xmlns="http://www.w3.org/2000/svg" xmlns:xlink="http://www.w3.org/1999/xlink" x="0px" y="0px"
	 viewBox="0 0 512 512" style="enable-background:new 0 0 512 512;" xml:space="preserve">
<style type="text/css">
	.st0{fill:#FFC477;}
	.st1{fill:#FFDAAA;}
	.st2{fill:#FFB655;}
	.st3{fill:#4E901E;}
	.st4{fill:#4CBA68;}
	.st5{fill:#7CCC92;}
	.st6{fill:#1E81CE;}
	.st7{fill:#3D9AE2;}
	.st8{fill:#EE8700;}
	.st9{fill:#FF9811;}
	.st10{fill:#2C733F;}
	.st11{fill:#317F46;}
	.st12{fill:#AA6100;}
	.st13{fill:#CC7400;}
	.st14{fill:#FFA733;}
</style>
<g id="Sheet">
	<path class="st0" d="M408.2,89.4V401c0,0.6,0,1.2,0,1.9c-1,21.3-18.6,38.4-40.2,38.4H141.8c-22.2,0-40.2-18-40.2-40.2V40.2
		c0-19.1,13.3-35.1,31.1-39.2c2.9-0.7,6-1,9.1-1h179.7c6.1,0,12.1,1.4,17.5,4c10.9,5.2,13.9,11.8,33.5,31.8
		c22.5,24.4,27.8,26.9,32.4,37.5C407,78.3,408.2,83.8,408.2,89.4z"/>
	<path class="st1" d="M408.2,89.4V401c0,0.6,0,1.2,0,1.9c-2.9,0.7-6,1-9.1,1H172.9c-22.2,0-40.2-18-40.2-40.2V2.9c0-0.6,0-1.3,0-1.9
		c2.9-0.7,6-1,9.1-1h179.7c6.1,0,12.1,1.4,17.5,4c4.4,2.1,8.5,5.1,11.9,8.8l21.5,23L397,61.6c3.3,3.4,5.9,7.4,7.8,11.7
		C407,78.3,408.2,83.8,408.2,89.4z"/>
	<path class="st2" d="M404.8,73.3h-50.4c-8.5,0-15.5-6.9-15.5-15.5V4c4.4,2.1,8.5,5.1,11.9,8.8l21.5,23L397,61.6
		C400.3,65,402.9,69,404.8,73.3z"/>
	<g>
		<path class="st3" d="M192.4,217.6L192.4,217.6c-9.5-3.5-16.3-6-16.3-14.8c0-8,5.3-12.1,15.8-12.1c7,0,11,2,13.7,3.4
			c1.6,0.8,2.9,1.5,4.4,1.5c4.3,0,6.6-4.5,6.6-7.7c0-6.5-10.6-9.7-20-10.5v-5.8c0-4.1-3.3-7.4-7.4-7.4s-7.4,3.3-7.4,7.4v6.8
			c-12.9,3.1-20,12-20,25.2c0,18.1,13.3,23.1,24,27.1c10.5,3.9,18.8,7.1,18.8,19c0,9.9-5.5,14.9-16.3,14.9c-9.8,0-13.7-4.2-16.6-7.3
			c-1.7-1.8-3.2-3.4-5.5-3.4c-3.7,0-6.8,4.2-6.8,7.7c0,6.1,9.1,14.2,22.3,16.3v5.6c0,4.1,3.3,7.4,7.4,7.4s7.4-3.3,7.4-7.4v-5.8
			c14.2-2.7,22.3-13.1,22.3-28.8C218.9,227.3,204.2,221.9,192.4,217.6z"/>
		<path class="st3" d="M329.6,113.5h19.5c4.3,0,7.8-3.5,7.8-7.8s-3.5-7.8-7.8-7.8h-19.5c-4.3,0-7.8,3.5-7.8,7.8
			S325.3,113.5,329.6,113.5z"/>
		<path class="st3" d="M160.5,113.5h137.9c4.3,0,7.8-3.5,7.8-7.8s-3.5-7.8-7.8-7.8H160.5c-4.3,0-7.8,3.5-7.8,7.8
			S156.2,113.5,160.5,113.5z"/>
		<path class="st3" d="M185.3,152.1c4.3,0,7.8-3.5,7.8-7.8s-3.5-7.8-7.8-7.8h-24.7c-4.3,0-7.8,3.5-7.8,7.8s3.5,7.8,7.8,7.8H185.3z"
			/>
		<path class="st3" d="M349.1,136.6H216.4c-4.3,0-7.8,3.5-7.8,7.8s3.5,7.8,7.8,7.8h132.7c4.3,0,7.8-3.5,7.8-7.8
			S353.4,136.6,349.1,136.6z"/>
	</g>
</g>
<g id="Calculator">
	<g id="CalculatorCase">
		<path class="st4" d="M511.4,228.9v226.2c0,12.6-4.1,24.2-11,33.6c-10.3,14.1-27,23.2-45.8,23.2H306.8c-31.4,0-56.9-25.5-56.9-56.9
			V228.9c0-23.5,14.2-43.6,34.5-52.3c6.9-2.9,14.4-4.6,22.3-4.6h147.7C486,172.1,511.4,197.5,511.4,228.9z"/>
		<path class="st5" d="M511.4,228.9v226.2c0,12.6-4.1,24.2-11,33.6c-6.9,2.9-14.4,4.6-22.3,4.6H330.3c-31.4,0-56.9-25.5-56.9-56.9
			V210.3c0-12.6,4.1-24.2,11-33.6c6.9-2.9,14.4-4.6,22.3-4.6h147.7C486,172.1,511.4,197.5,511.4,228.9z"/>
	</g>
	<g id="Display">
		<path class="st6" d="M472.3,223.6v28.5c0,10.1-8.2,18.3-18.3,18.3H307.4c-10.1,0-18.3-8.2-18.3-18.3v-28.5
			c0-10.1,8.2-18.3,18.3-18.3H454C464.1,205.3,472.3,213.5,472.3,223.6z"/>
		<path class="st7" d="M472.3,223.6v28.5c0,10.1-8.2,18.3-18.3,18.3H338.5c-10.1,0-18.3-8.2-18.3-18.3v-28.5
			c0-10.1,8.2-18.3,18.3-18.3H454C464.1,205.3,472.3,213.5,472.3,223.6z"/>
	</g>
	<g id="Delete">
		<path class="st8" d="M473.2,308.2v26.6c0,4.7-3.8,8.5-8.5,8.5h-26.6c-4.7,0-8.5-3.8-8.5-8.5v-26.6c0-4.7,3.8-8.5,8.5-8.5h26.6
			C469.4,299.7,473.2,303.5,473.2,308.2z"/>
		<path class="st9" d="M473.2,308.2v7.9c0,4.7-3.8,8.5-8.5,8.5h-26.6c-4.7,0-8.5-3.8-8.5-8.5v-7.9c0-4.7,3.8-8.5,8.5-8.5h26.6
			C469.4,299.7,473.2,303.5,473.2,308.2z"/>
	</g>
	<g id="Numbers">
		<path class="st10" d="M402.5,377.7v26.6c0,4.7-3.8,8.5-8.5,8.5h-26.6c-4.7,0-8.5-3.8-8.5-8.5v-26.6c0-4.7,3.8-8.5,8.5-8.5H394
			C398.7,369.2,402.5,373,402.5,377.7z"/>
		<path class="st10" d="M332.6,377.7v26.6c0,4.7-3.8,8.5-8.5,8.5h-26.6c-4.7,0-8.5-3.8-8.5-8.5v-26.6c0-4.7,3.8-8.5,8.5-8.5h26.6
			C328.8,369.2,332.6,373,332.6,377.7z"/>
		<path class="st10" d="M402.5,308.2v26.6c0,4.7-3.8,8.5-8.5,8.5h-26.6c-4.7,0-8.5-3.8-8.5-8.5v-26.6c0-4.7,3.8-8.5,8.5-8.5H394
			C398.7,299.7,402.5,303.5,402.5,308.2z"/>
		<path class="st10" d="M332.6,308.2v26.6c0,4.7-3.8,8.5-8.5,8.5h-26.6c-4.7,0-8.5-3.8-8.5-8.5v-26.6c0-4.7,3.8-8.5,8.5-8.5h26.6
			C328.8,299.7,332.6,303.5,332.6,308.2z"/>
		<path class="st10" d="M402.5,443.7v26.6c0,4.7-3.8,8.5-8.5,8.5h-26.6c-4.7,0-8.5-3.8-8.5-8.5v-26.6c0-4.7,3.8-8.5,8.5-8.5H394
			C398.7,435.2,402.5,439,402.5,443.7z"/>
		<path class="st10" d="M332.6,443.7v26.6c0,4.7-3.8,8.5-8.5,8.5h-26.6c-4.7,0-8.5-3.8-8.5-8.5v-26.6c0-4.7,3.8-8.5,8.5-8.5h26.6
			C328.8,435.2,332.6,439,332.6,443.7z"/>
		<path class="st11" d="M332.6,308.2v7.9c0,4.7-3.8,8.5-8.5,8.5h-26.6c-4.7,0-8.5-3.8-8.5-8.5v-7.9c0-4.7,3.8-8.5,8.5-8.5h26.6
			C328.8,299.7,332.6,303.5,332.6,308.2z"/>
		<path class="st11" d="M402.5,443.7v7.9c0,4.7-3.8,8.5-8.5,8.5h-26.6c-4.7,0-8.5-3.8-8.5-8.5v-7.9c0-4.7,3.8-8.5,8.5-8.5H394
			C398.7,435.2,402.5,439,402.5,443.7z"/>
		<path class="st11" d="M332.6,443.7v7.9c0,4.7-3.8,8.5-8.5,8.5h-26.6c-4.7,0-8.5-3.8-8.5-8.5v-7.9c0-4.7,3.8-8.5,8.5-8.5h26.6
			C328.8,435.2,332.6,439,332.6,443.7z"/>
		<path class="st11" d="M402.5,377.7v7.9c0,4.7-3.8,8.5-8.5,8.5h-26.6c-4.7,0-8.5-3.8-8.5-8.5v-7.9c0-4.7,3.8-8.5,8.5-8.5H394
			C398.7,369.2,402.5,373,402.5,377.7z"/>
		<path class="st11" d="M332.6,377.7v7.9c0,4.7-3.8,8.5-8.5,8.5h-26.6c-4.7,0-8.5-3.8-8.5-8.5v-7.9c0-4.7,3.8-8.5,8.5-8.5h26.6
			C328.8,369.2,332.6,373,332.6,377.7z"/>
		<path class="st11" d="M402.5,308.2v7.9c0,4.7-3.8,8.5-8.5,8.5h-26.6c-4.7,0-8.5-3.8-8.5-8.5v-7.9c0-4.7,3.8-8.5,8.5-8.5H394
			C398.7,299.7,402.5,303.5,402.5,308.2z"/>
	</g>
	<g id="Enter">
		<path class="st8" d="M473.2,381.8v82.5c0,8-6.5,14.5-14.5,14.5h-14.6c-8,0-14.5-6.5-14.5-14.5v-82.5c0-7,5.7-12.6,12.6-12.6h18.3
			C467.5,369.2,473.2,374.8,473.2,381.8z"/>
		<path class="st9" d="M473.2,381.8v63.8c0,8-6.5,14.5-14.5,14.5h-14.6c-8,0-14.5-6.5-14.5-14.5v-63.8c0-7,5.7-12.6,12.6-12.6h18.3
			C467.5,369.2,473.2,374.8,473.2,381.8z"/>
	</g>
</g>
<g id="CoinStack">
	<path id="Coin5" class="st12" d="M223.4,487.5c0,5.4-2.2,10.3-5.8,13.9c-3.6,3.6-8.5,5.8-13.9,5.8H83c-10.8,0-19.7-8.9-19.7-19.7
		c0-5.4,2.2-10.3,5.8-13.9c3.6-3.6,8.5-5.8,13.9-5.8h120.7C214.6,467.8,223.4,476.7,223.4,487.5z"/>
	<path id="Coin4" class="st13" d="M223.4,448.1c0,5.4-2.2,10.3-5.8,13.9c-3.6,3.6-8.5,5.8-13.9,5.8H83c-10.8,0-19.7-8.9-19.7-19.7
		c0-5.4,2.2-10.3,5.8-13.9c3.6-3.6,8.5-5.8,13.9-5.8h120.7C214.6,428.4,223.4,437.3,223.4,448.1z"/>
	<path id="Coin3" class="st8" d="M223.4,408.7c0,5.4-2.2,10.3-5.8,13.9c-3.6,3.6-8.5,5.8-13.9,5.8H83c-10.8,0-19.7-8.9-19.7-19.7
		c0-5.4,2.2-10.3,5.8-13.9c3.6-3.6,8.5-5.8,13.9-5.8h120.7C214.6,389,223.4,397.9,223.4,408.7z"/>
	<path id="Coin2" class="st9" d="M223.4,369.3c0,5.4-2.2,10.3-5.8,13.9c-3.6,3.6-8.5,5.8-13.9,5.8H83c-10.8,0-19.7-8.9-19.7-19.7
		c0-3.9,1.1-7.5,3.1-10.5c0.8-1.2,1.7-2.4,2.7-3.4c3.6-3.6,8.5-5.8,13.9-5.8h120.7C214.6,349.6,223.4,358.5,223.4,369.3z"/>
	<path id="Coin1" class="st14" d="M203.7,349.6H83c-10.8,0-19.7-8.9-19.7-19.7l0,0c0-10.8,8.9-19.7,19.7-19.7h120.7
		c10.8,0,19.7,8.9,19.7,19.7l0,0C223.4,340.8,214.6,349.6,203.7,349.6z"/>
</g>
<g id="Coin">
	<path class="st13" d="M87.3,381.2v128.3H67.7c-17.3,0.7-33.4-5.5-45.4-16.2c-43.6-38.7-17.1-109.6,39.9-112.1H87.3z"/>
	<path class="st0" d="M154.1,447.7c-1.2,33.2-27.7,60.4-61.4,61.8c-35.4,1.5-65.4-26-66.9-61.4c0-0.1,0-0.3,0-0.4
		c-1.3-35.2,26.1-64.9,61.4-66.4c35.4-1.5,65.4,26,66.9,61.4C154.2,444.3,154.2,446,154.1,447.7z"/>
	<path class="st13" d="M100.6,492.2c-0.8,0.2-1.6,0.3-2.3,0.5c-25.1,4.4-49.4-11.6-55.1-36.7c-5.9-25.9,10.4-51.6,36.2-57.5
		c6.4-1.5,12.9-1.6,19-0.5c18.5,3.3,34.1,17.3,38.5,36.7C142.7,460.6,126.5,486.3,100.6,492.2z"/>
	<path class="st8" d="M100.6,492.2c-0.8,0.2-1.6,0.3-2.3,0.5c-18.5-3.3-34.1-17.3-38.5-36.7c-5.9-25.9,10.4-51.6,36.2-57.5
		c0.8-0.2,1.6-0.3,2.3-0.5c18.5,3.3,34.1,17.3,38.5,36.7C142.7,460.6,126.5,486.3,100.6,492.2z"/>
	<path class="st12" d="M95.8,435.6l-1.2-0.4c-6.8-2.5-7.5-3.3-7.5-5.6c0-1.9,0.7-2.5,1.4-2.9c1-0.6,2.7-0.9,4.6-0.9
		c3.4,0,5.1,0.9,6.6,1.7c1.2,0.6,2.5,1.3,4.2,1.3c4.4,0,7.4-4.2,7.4-8c0-4.7-4.2-8-12-9.3v-0.5c0-4.3-3.5-7.9-7.9-7.9
		s-7.9,3.5-7.9,7.9v1.5c-7.7,2.8-12,9.1-12,17.7c0,13.2,9.6,16.8,16.6,19.5c6.7,2.5,9,3.6,9,8.2c0,2.8-0.8,5.5-6.3,5.5
		c-4.4,0-5.9-1.7-7.4-3.3c-1.2-1.3-2.9-3.1-5.8-3.1c-4.3,0-7.5,4.2-7.5,8c0,5.4,5.6,10.5,13.4,12.5v0.6c0,4.3,3.5,7.9,7.9,7.9
		s7.9-3.5,7.9-7.9v-0.8c8.4-2.7,13.4-10,13.4-19.9C112.7,441.9,101.7,437.8,95.8,435.6z"/>
	<path class="st14" d="M154.1,447.7c-1.2,33.2-27.7,60.4-61.4,61.8c-35.4,1.5-65.4-26-66.9-61.4c0-0.1,0-0.3,0-0.4H42
		c0.1,2.7,0.5,5.5,1.1,8.3c5.9,25.9,31.6,42.1,57.5,36.2c21.5-4.9,36.4-23.5,37.4-44.5H154.1L154.1,447.7z"/>
	<g id="CoinRippels">
		<path class="st12" d="M36.4,410c-3.2,4.8-5.7,10-7.5,15.5h-25c1.8-5.6,4.5-11,7.5-15.5H36.4z"/>
		<path class="st12" d="M26.3,453.4H1.2c-0.6-5.1-0.7-10.2-0.1-15.5h25.1C25.6,442.9,25.7,448.2,26.3,453.4z"/>
		<path class="st12" d="M37.3,482H12.2c-3.4-4.9-6.1-10.1-7.9-15.5h25.1C31.3,472.1,34,477.3,37.3,482z"/>
	</g>
</g>
</svg>
