<?xml version="1.0" standalone="no"?>
<!DOCTYPE svg PUBLIC "-//W3C//DTD SVG 20010904//EN"
 "http://www.w3.org/TR/2001/REC-SVG-20010904/DTD/svg10.dtd">
<svg version="1.0" xmlns="http://www.w3.org/2000/svg"
 width="700.000000pt" height="700.000000pt" viewBox="0 0 700.000000 700.000000"
 preserveAspectRatio="xMidYMid meet">
<metadata>
Created by potrace 1.14, written by Peter Selinger 2001-2017
</metadata>
<g transform="translate(0.000000,700.000000) scale(0.100000,-0.100000)"
fill="#000000" stroke="none">
<path d="M2124 5626 c-24 -24 -34 -43 -34 -65 0 -43 23 -85 55 -99 19 -9 266
-12 1001 -12 l976 0 28 29 c16 16 32 40 35 54 9 34 -22 98 -55 114 -19 10
-243 13 -998 13 l-974 0 -34 -34z"/>
<path d="M4434 5626 c-39 -39 -45 -80 -17 -126 26 -45 51 -50 228 -50 l165 0
32 29 c28 25 33 36 33 76 0 40 -5 51 -33 76 l-32 29 -171 0 -171 0 -34 -34z"/>
<path d="M2141 5116 c-31 -17 -50 -53 -51 -94 0 -26 9 -43 35 -69 l34 -34 210
3 211 3 26 26 c16 16 28 41 31 67 5 37 2 45 -30 77 l-35 35 -203 0 c-150 -1
-210 -4 -228 -14z"/>
<path d="M2890 5103 c-57 -52 -42 -147 26 -173 17 -7 363 -9 965 -8 l939 3 27
28 c22 22 28 37 28 73 0 39 -5 50 -33 75 l-32 29 -945 0 -945 0 -30 -27z"/>
<path d="M2517 4722 c-24 -25 -27 -36 -27 -95 0 -47 -4 -67 -12 -67 -31 0
-140 -62 -177 -100 -59 -61 -85 -135 -85 -245 1 -188 69 -265 322 -369 156
-63 200 -91 232 -149 19 -33 24 -56 24 -112 0 -113 -47 -174 -151 -195 -109
-23 -204 5 -288 84 -56 52 -83 63 -115 46 -27 -14 -60 -68 -60 -98 0 -79 121
-178 263 -213 l47 -11 0 -55 c0 -67 20 -99 69 -114 31 -9 43 -8 69 5 40 21 55
48 62 114 l5 53 52 18 c112 38 189 118 225 234 17 57 20 86 16 170 -11 210
-83 294 -344 397 -71 28 -145 62 -165 75 -50 33 -72 84 -67 153 4 48 10 60 41
88 19 18 55 38 79 44 68 19 183 8 252 -23 79 -36 117 -35 150 4 75 89 -13 181
-196 205 l-48 7 0 49 c0 54 -20 102 -49 118 -39 20 -95 12 -124 -18z"/>
<path d="M3813 4543 c-142 -84 -238 -186 -309 -328 -86 -175 -79 -8 -79 -1890
0 -1872 -6 -1713 74 -1880 79 -164 195 -282 356 -360 174 -85 86 -80 1350 -80
1055 0 1124 1 1190 18 152 40 333 151 409 252 33 44 43 43 -74 7 -50 -16 -156
-17 -1210 -17 l-1155 0 -80 27 c-276 95 -470 310 -526 583 -18 86 -19 169 -19
1700 1 1312 3 1624 14 1685 17 90 55 195 97 263 16 27 28 51 26 53 -2 2 -31
-13 -64 -33z"/>
<path d="M4145 4191 c-78 -20 -161 -96 -183 -169 -8 -26 -12 -126 -12 -285 l0
-245 28 -53 c31 -60 93 -113 150 -129 51 -14 2103 -14 2154 0 57 16 119 69
150 129 l28 53 0 247 c0 280 -6 312 -67 375 -20 21 -55 47 -77 59 l-41 22
-1050 2 c-577 0 -1063 -2 -1080 -6z"/>
<path d="M4024 2896 c-17 -8 -40 -26 -52 -41 -21 -27 -22 -37 -22 -251 l0
-222 26 -31 c39 -47 76 -53 296 -49 181 3 199 5 225 24 50 37 53 52 53 285 0
207 -1 218 -22 244 -38 49 -69 55 -280 55 -139 -1 -202 -5 -224 -14z"/>
<path d="M4970 2892 c-63 -31 -70 -60 -70 -287 0 -306 -1 -305 303 -305 308 0
301 -7 305 295 4 317 6 315 -303 315 -170 0 -205 -3 -235 -18z"/>
<path d="M5950 2897 c-19 -7 -44 -27 -57 -46 -22 -33 -23 -42 -23 -246 0 -204
1 -213 23 -246 13 -19 38 -39 57 -46 44 -15 380 -17 432 -3 20 6 48 24 62 41
l26 31 0 222 c0 214 -1 224 -22 251 -38 49 -70 55 -275 54 -118 0 -201 -5
-223 -12z"/>
<path d="M1083 2210 c-81 -17 -144 -66 -186 -144 -30 -58 -31 -174 0 -232 l22
-40 -111 -12 c-252 -26 -463 -141 -610 -332 -78 -101 -123 -189 -155 -306 -25
-88 -28 -115 -27 -244 0 -128 4 -155 28 -235 74 -243 249 -444 481 -551 134
-62 237 -78 465 -75 l105 2 -72 19 c-172 45 -305 123 -424 247 -76 80 -101
118 -168 259 -54 112 -71 198 -71 346 0 135 15 216 57 318 126 302 372 498
686 546 248 38 474 -22 673 -180 413 -327 441 -952 59 -1315 -92 -87 -164
-135 -270 -178 l-80 -33 685 0 c647 0 687 1 726 19 87 40 145 124 152 224 6
79 -13 138 -61 194 -40 45 -121 92 -162 94 -11 0 1 6 27 13 131 35 206 146
196 288 -5 57 -11 77 -38 117 -37 54 -83 89 -149 113 -35 13 -40 17 -21 17 14
1 48 15 77 31 89 51 133 128 133 232 0 122 -74 219 -195 258 -48 15 -54 19
-30 20 43 1 107 32 147 72 128 129 93 345 -69 424 l-58 29 -860 2 c-473 0
-879 -3 -902 -7z"/>
<path d="M4024 1950 c-11 -4 -33 -22 -47 -40 l-27 -32 0 -223 0 -223 26 -31
c39 -47 76 -53 296 -49 181 3 199 5 225 24 50 37 53 52 53 285 0 207 -1 218
-22 244 -39 49 -69 55 -285 54 -109 0 -207 -4 -219 -9z"/>
<path d="M4970 1942 c-63 -31 -70 -60 -70 -287 0 -306 -1 -305 303 -305 308 0
301 -7 305 295 4 317 6 315 -303 315 -170 0 -205 -3 -235 -18z"/>
<path d="M6000 1949 c-52 -16 -86 -45 -109 -92 -21 -42 -21 -55 -21 -643 0
-671 -2 -645 73 -711 53 -47 93 -55 247 -51 157 4 196 17 245 87 l30 43 0 632
0 633 -28 36 c-49 64 -73 72 -247 74 -85 1 -171 -3 -190 -8z"/>
<path d="M1095 1555 c-38 -8 -106 -32 -150 -54 -141 -71 -238 -168 -305 -306
-50 -105 -65 -170 -64 -285 1 -187 59 -326 194 -460 136 -137 275 -194 470
-193 84 1 121 6 185 27 179 57 313 173 396 342 93 190 91 385 -6 581 -106 214
-312 348 -553 358 -62 3 -122 -1 -167 -10z"/>
<path d="M3984 1016 l-34 -34 0 -221 c0 -323 -11 -311 295 -311 313 0 305 -8
305 300 0 314 14 300 -303 300 l-229 0 -34 -34z"/>
<path d="M4959 1035 c-51 -28 -59 -64 -59 -279 0 -221 7 -252 62 -286 30 -18
50 -20 243 -20 311 0 308 -3 303 319 -4 293 9 281 -305 281 -169 -1 -224 -4
-244 -15z"/>
</g>
</svg>
